<?xml version="1.0" encoding="utf-8"?>
<!-- Generator: Adobe Illustrator 21.1.0, SVG Export Plug-In . SVG Version: 6.00 Build 0)  -->
<svg version="1.1" id="Layer_1" xmlns="http://www.w3.org/2000/svg" xmlns:xlink="http://www.w3.org/1999/xlink" x="0px" y="0px"
	 viewBox="0 0 1549.61 1549.61" style="enable-background:new 0 0 1549.61 1549.61;" xml:space="preserve">
<style type="text/css">
	.st0{fill:#373535;}
</style>
<g>
	<path class="st0" d="M783.58,469.56c28.32,0,55.82,5.53,81.72,16.42c26.81,11.28,50.6,27.79,70.71,49.08
		c30.46,32.24,49.58,72.52,55.29,116.49c2.75,21.18,2.29,42.62-1.38,63.73c-3.71,21.33-10.61,41.88-20.53,61.08l-11.13,21.55
		l22.15-9.88c27.4-12.23,56.53-18.43,86.6-18.43c28.32,0,55.81,5.53,81.71,16.42c26.81,11.27,50.59,27.78,70.7,49.07
		c19.5,20.64,34.33,44.5,44.09,70.93c9.43,25.54,13.76,52.39,12.86,79.82c-0.9,27.43-6.97,54.04-18.07,79.1
		c-11.48,25.94-27.87,49.07-48.7,68.75c-13.92,13.15-52.65,47.04-111.68,77.69c-21.84,11.14-52.85,19.34-92.18,24.38
		c-34.34,4.4-75.23,6.54-125,6.54c-62.21,0-127.06-3.29-189.78-6.47c-53.25-2.7-103.54-5.25-144.59-5.25
		c-33.21,0-57.46,1.64-74.81,5.19c6.92-14.11,12.82-29.9,17.87-47.76c6.58-23.25,11.55-49.52,15.21-80.29
		c6.74-56.7,7.82-120.11,8.88-181.43c0.96-55.76,1.94-113.42,7.28-164.05c5.89-55.89,16.59-97.58,32.71-127.46
		c31.51-54.8,69.11-93.02,83.82-106.91C677.14,490.26,729.08,469.56,783.58,469.56 M783.58,461.05
		c-54.47,0-109.2,20.11-152.09,60.63c-24.29,22.94-57.85,60.99-85.41,108.95c-77.45,143.34-1.9,476.23-92.4,619.83
		c16.22-8.53,49.35-11.39,92.7-11.39c87.84,0,217.76,11.73,334.37,11.73c90.17,0,172.36-7,221.08-31.86
		c49.88-25.9,89.35-56.13,113.63-79.07c88.6-83.7,93.15-222.77,10.15-310.62c-42.81-45.32-100.56-68.15-158.59-68.15
		c-30.66,0-61.39,6.37-90.07,19.16c41.67-80.7,30.67-181.78-34.76-251.04C899.38,483.9,841.63,461.06,783.58,461.05L783.58,461.05z"
		/>
</g>
</svg>
