<?xml version="1.0" encoding="utf-8"?>
<!-- Generator: Adobe Illustrator 21.1.0, SVG Export Plug-In . SVG Version: 6.00 Build 0)  -->
<svg version="1.1" id="Layer_1" xmlns="http://www.w3.org/2000/svg" xmlns:xlink="http://www.w3.org/1999/xlink" x="0px" y="0px"
	 viewBox="0 0 1549.61 1549.61" style="enable-background:new 0 0 1549.61 1549.61;" xml:space="preserve">
<style type="text/css">
	.st0{fill:#EE3338;}
</style>
<path class="st0" d="M783.58,325.32L783.58,325.32c-45.35,0-89.74,8.35-131.94,24.82c-43.67,17.05-83.2,42.12-117.49,74.51
	c-24.29,22.94-71,71.82-110.97,141.36l-0.93,1.61l-0.88,1.63c-26.01,48.13-41.89,106.36-49.99,183.23
	c-6.03,57.19-7.07,118.21-8.08,177.22c-1.03,60.23-2.01,117.13-7.85,166.28c5.75,75.96-120.55,320.02-130.54,302.54
	c0,0,407.14-9.27,458.43-6.67c61.58,3.12,131.37,6.67,197.39,6.67c133.27,0,221.32-14.6,285.5-47.34l0.45-0.23l0.45-0.23
	c73.14-37.97,122.65-80.1,145.65-101.83c35.41-33.45,63.31-72.87,82.91-117.15c18.94-42.78,29.31-88.2,30.84-135
	c1.53-46.92-5.9-92.93-22.09-136.77c-16.82-45.54-42.33-86.61-75.81-122.06c-34.55-36.57-75.48-64.96-121.67-84.39
	c-21.89-9.21-44.43-16.18-67.45-20.88c-5.08-34.84-15.18-68.59-30.06-100.4c-16.21-34.65-37.83-66.4-64.24-94.36
	c-34.55-36.57-75.49-64.97-121.68-84.4C879.1,334.8,832.01,325.32,783.58,325.32L783.58,325.32L783.58,325.32z"/>
</svg>
