<?xml version="1.0" encoding="utf-8"?>
<!-- Generator: Adobe Illustrator 21.1.0, SVG Export Plug-In . SVG Version: 6.00 Build 0)  -->
<svg version="1.1" id="Layer_1" xmlns="http://www.w3.org/2000/svg" xmlns:xlink="http://www.w3.org/1999/xlink" x="0px" y="0px"
	 viewBox="0 0 1549.61 1549.61" style="enable-background:new 0 0 1549.61 1549.61;" xml:space="preserve">
<style type="text/css">
	.st0{fill:#EE3338;}
	.st1{fill:#373535;}
	.st2{fill:#FFFFFF;stroke:#373535;stroke-width:0.25;stroke-miterlimit:10;}
	.st3{fill:none;stroke:#373535;stroke-width:8.5039;stroke-miterlimit:10;}
</style>
<path class="st0" d="M783.58,325.32C783.58,325.32,783.58,325.32,783.58,325.32c-45.35,0-89.74,8.35-131.94,24.82
	c-43.67,17.05-83.2,42.12-117.49,74.51c-24.29,22.94-71,71.82-110.97,141.36l-0.93,1.61l-0.88,1.63
	c-26.01,48.13-41.89,106.36-49.99,183.23c-6.03,57.19-7.07,118.21-8.08,177.22c-1.03,60.23-2.01,117.13-7.85,166.28
	c5.75,75.96-120.55,320.02-130.54,302.54c0,0,407.14-9.27,458.43-6.67c61.58,3.12,131.37,6.67,197.39,6.67
	c133.27,0,221.32-14.6,285.5-47.34l0.45-0.23l0.45-0.23c73.14-37.97,122.65-80.1,145.65-101.83
	c35.41-33.45,63.31-72.87,82.91-117.15c18.94-42.78,29.31-88.2,30.84-135c1.53-46.92-5.9-92.93-22.09-136.77
	c-16.82-45.54-42.33-86.61-75.81-122.06c-34.55-36.57-75.48-64.96-121.67-84.39c-21.89-9.21-44.43-16.18-67.45-20.88
	c-5.08-34.84-15.18-68.59-30.06-100.4c-16.21-34.65-37.83-66.4-64.24-94.36c-34.55-36.57-75.49-64.97-121.68-84.4
	C879.1,334.8,832.01,325.32,783.58,325.32L783.58,325.32L783.58,325.32z"/>
<g>
	<path class="st1" d="M783.58,330.99c47.67,0,94.02,9.33,137.76,27.73c45.46,19.12,85.75,47.07,119.75,83.06
		c25.99,27.52,47.27,58.76,63.22,92.87c14.64,31.28,24.59,64.53,29.59,98.81l0.57,3.94l3.9,0.8c22.6,4.62,44.94,11.53,66.39,20.56
		c45.45,19.12,85.74,47.06,119.74,83.06c32.96,34.89,58.06,75.31,74.61,120.13c15.93,43.15,23.25,88.44,21.74,134.62
		c-1.51,46.07-11.72,90.78-30.36,132.89c-19.29,43.59-46.76,82.39-81.62,115.33c-22.79,21.53-71.85,63.26-144.36,100.91l-0.42,0.22
		l-0.45,0.23c-63.33,32.31-150.59,46.72-282.92,46.72c-65.87,0-135.58-3.54-197.1-6.66c-6.12-0.31-17.55-0.47-33.98-0.47
		c-96.03,0-342.41,5.3-407.84,6.75c17.43-23.18,45.08-75.95,66.26-122.58c17-37.43,56.09-129.04,53.09-173.78
		c5.82-49.32,6.79-106.15,7.82-166.32c1.01-58.89,2.05-119.78,8.05-176.72c8.02-76.12,23.7-133.67,49.34-181.13l0.85-1.57l0.89-1.54
		C467.72,499.92,514,451.5,538.06,428.77c33.76-31.89,72.67-56.56,115.65-73.35C695.25,339.21,738.94,330.99,783.58,330.99
		 M783.58,325.32L783.58,325.32C783.58,325.32,783.58,325.32,783.58,325.32L783.58,325.32z M783.58,325.32
		c-45.35,0-89.74,8.35-131.93,24.82c-43.67,17.05-83.2,42.12-117.49,74.51c-24.29,22.94-71,71.82-110.97,141.36l-0.93,1.61
		l-0.88,1.63c-26.01,48.13-41.89,106.35-49.99,183.23c-6.03,57.19-7.07,118.21-8.08,177.22c-1.03,60.23-2.01,117.13-7.85,166.28
		c5.34,70.55-103.25,286.13-126.73,302.45c35.96-0.81,316.5-7.04,420.92-7.04c15.68,0,27.38,0.14,33.69,0.46
		c61.58,3.12,131.37,6.67,197.39,6.67c133.27,0,221.32-14.6,285.5-47.34l0.45-0.23l0.45-0.23c73.14-37.97,122.65-80.1,145.65-101.83
		c35.41-33.45,63.31-72.87,82.91-117.15c18.94-42.78,29.31-88.2,30.84-135c1.53-46.92-5.9-92.93-22.09-136.77
		c-16.82-45.54-42.33-86.61-75.81-122.06c-34.55-36.57-75.48-64.96-121.67-84.39c-21.89-9.21-44.43-16.18-67.45-20.88
		c-5.08-34.84-15.18-68.59-30.06-100.4c-16.21-34.65-37.83-66.4-64.24-94.36c-34.55-36.57-75.49-64.97-121.68-84.4
		C879.1,334.8,832.01,325.32,783.58,325.32L783.58,325.32z M228.73,1398.44c-2.49,0.06-3.81,0.09-3.81,0.09
		c0.34,0.6,0.82,0.89,1.43,0.89C227.01,1399.42,227.8,1399.09,228.73,1398.44L228.73,1398.44z"/>
</g>
<path class="st2" d="M1101.82,1224.94c49.88-25.9,89.35-56.13,113.63-79.07c88.6-83.7,93.15-222.77,10.15-310.62
	c-65.43-69.26-165.72-86-248.66-48.99c41.67-80.7,30.67-181.78-34.76-251.04c-82.99-87.86-222.1-91.23-310.7-7.54
	c-24.29,22.94-57.85,60.99-85.41,108.95c-77.45,143.34-1.9,476.23-92.4,619.83C528.18,1217.28,959.01,1297.8,1101.82,1224.94z"/>
<path class="st3" d="M783.58,467.05c58.04,0,115.8,22.84,158.61,68.16c65.43,69.26,76.43,170.35,34.76,251.04
	c28.67-12.8,59.41-19.17,90.07-19.17c58.03,0,115.78,22.84,158.59,68.15c82.99,87.86,78.45,226.93-10.15,310.62
	c-24.29,22.94-63.76,53.17-113.64,79.07c-48.72,24.86-130.91,31.86-221.08,31.86c-116.61,0-246.51-11.73-334.35-11.72
	c-43.35,0-76.48,2.86-92.7,11.39c90.49-143.6,14.95-476.49,92.4-619.83c27.56-47.96,61.12-86.01,85.41-108.95
	C674.39,487.16,729.11,467.05,783.58,467.05"/>
</svg>
