<?xml version="1.0" encoding="utf-8"?>
<!-- Generator: Adobe Illustrator 21.1.0, SVG Export Plug-In . SVG Version: 6.00 Build 0)  -->
<svg version="1.1" id="Layer_1" xmlns="http://www.w3.org/2000/svg" xmlns:xlink="http://www.w3.org/1999/xlink" x="0px" y="0px"
	 viewBox="0 0 1549.6 1549.6" style="enable-background:new 0 0 1549.6 1549.6;" xml:space="preserve">
<style type="text/css">
	.st0{fill:#373535;}
</style>
<path class="st0" d="M783.6,469.6c28.3,0,55.8,5.5,81.7,16.4c26.8,11.3,50.6,27.8,70.7,49.1c30.5,32.2,49.6,72.5,55.3,116.5
	c2.8,21.2,2.3,42.6-1.4,63.7c-3.7,21.3-10.6,41.9-20.5,61.1l-11.1,21.5l22.2-9.9c27.4-12.2,56.5-18.4,86.6-18.4
	c28.3,0,55.8,5.5,81.7,16.4c26.8,11.3,50.6,27.8,70.7,49.1c19.5,20.6,34.3,44.5,44.1,70.9c9.4,25.5,13.8,52.4,12.9,79.8
	s-7,54-18.1,79.1c-11.5,25.9-27.9,49.1-48.7,68.8c-13.9,13.2-52.7,47-111.7,77.7c-21.8,11.1-52.8,19.3-92.2,24.4
	c-34.3,4.4-75.2,6.5-125,6.5c-62.2,0-127.1-3.3-189.8-6.5c-53.2-2.7-103.5-5.2-144.6-5.2c-33.2,0-57.5,1.6-74.8,5.2
	c6.9-14.1,12.8-29.9,17.9-47.8c6.6-23.2,11.5-49.5,15.2-80.3c6.7-56.7,7.8-120.1,8.9-181.4c1-55.8,1.9-113.4,7.3-164
	c5.9-55.9,16.6-97.6,32.7-127.5c31.5-54.8,69.1-93,83.8-106.9C677.1,490.3,729.1,469.6,783.6,469.6"/>
</svg>
