<?xml version="1.0" encoding="utf-8"?>
<!-- Generator: Adobe Illustrator 21.1.0, SVG Export Plug-In . SVG Version: 6.00 Build 0)  -->
<svg version="1.1" id="Layer_1" xmlns="http://www.w3.org/2000/svg" xmlns:xlink="http://www.w3.org/1999/xlink" x="0px" y="0px"
	 viewBox="0 0 1549.61 1549.61" style="enable-background:new 0 0 1549.61 1549.61;" xml:space="preserve">
<style type="text/css">
	.st0{fill:#373535;}
</style>
<path class="st0" d="M783.58,461.05c-54.47,0-109.2,20.11-152.09,60.63c-24.29,22.94-57.85,60.99-85.41,108.95
	c-77.45,143.34-1.9,476.23-92.4,619.83c16.22-8.53,49.35-11.39,92.7-11.39c87.84,0,217.76,11.73,334.37,11.73
	c90.17,0,172.36-7,221.08-31.86c49.88-25.9,89.35-56.13,113.63-79.07c88.6-83.7,93.15-222.77,10.15-310.62
	c-42.81-45.32-100.56-68.15-158.59-68.15c-30.66,0-61.39,6.37-90.07,19.16c41.67-80.7,30.67-181.78-34.76-251.04
	C899.38,483.9,841.63,461.06,783.58,461.05L783.58,461.05z"/>
</svg>
