<?xml version="1.0" encoding="utf-8"?>
<!-- Generator: Adobe Illustrator 21.1.0, SVG Export Plug-In . SVG Version: 6.00 Build 0)  -->
<svg version="1.1" id="Layer_1" xmlns="http://www.w3.org/2000/svg" xmlns:xlink="http://www.w3.org/1999/xlink" x="0px" y="0px"
	 viewBox="0 0 1549.61 1549.61" style="enable-background:new 0 0 1549.61 1549.61;" xml:space="preserve">
<style type="text/css">
	.st0{fill:#373535;}
</style>
<g>
	<path class="st0" d="M783.58,465.31c28.89,0,56.94,5.64,83.37,16.75c27.36,11.51,51.63,28.36,72.15,50.08
		c31.08,32.9,50.59,74,56.42,118.86c2.81,21.6,2.33,43.48-1.41,65c-3.78,21.76-10.83,42.72-20.94,62.31l-5.56,10.78l11.07-4.94
		c27.95-12.47,57.66-18.79,88.33-18.79c28.89,0,56.93,5.64,83.36,16.75c27.35,11.5,51.63,28.35,72.15,50.07
		c19.89,21.05,35.03,45.41,44.99,72.38c9.62,26.06,14.04,53.45,13.12,81.43c-0.91,27.98-7.11,55.12-18.43,80.68
		c-11.71,26.46-28.42,50.05-49.67,70.12c-14.05,13.27-53.15,47.48-112.64,78.37c-22.28,11.36-53.77,19.72-93.6,24.82
		c-34.52,4.42-75.59,6.57-125.54,6.57c-62.32,0-127.23-3.29-190-6.48c-53.19-2.7-103.43-5.25-144.36-5.25c0,0-0.01,0-0.01,0
		c-38.79,0-65.7,2.35-82.9,7.31c41.69-76.63,43.78-198.19,45.79-315.93c0.96-55.85,1.95-113.61,7.3-164.42
		c5.95-56.48,16.82-98.71,33.22-129.09c31.8-55.31,69.76-93.9,84.61-107.93C675.01,486.42,727.99,465.3,783.58,465.31
		 M783.58,461.05c-54.47,0-109.2,20.11-152.09,60.63c-24.29,22.94-57.85,60.99-85.41,108.95c-77.45,143.34-1.9,476.23-92.4,619.83
		c16.22-8.53,49.35-11.39,92.7-11.39c87.84,0,217.76,11.73,334.37,11.73c90.17,0,172.36-7,221.08-31.86
		c49.88-25.9,89.35-56.13,113.63-79.07c88.6-83.7,93.15-222.77,10.15-310.62c-42.81-45.32-100.56-68.15-158.59-68.15
		c-30.66,0-61.39,6.37-90.07,19.16c41.67-80.7,30.67-181.78-34.76-251.04C899.38,483.9,841.63,461.06,783.58,461.05L783.58,461.05z"
		/>
</g>
</svg>
