<?xml version="1.0" encoding="utf-8"?>
<!-- Generator: Adobe Illustrator 21.1.0, SVG Export Plug-In . SVG Version: 6.00 Build 0)  -->
<svg version="1.1" id="Layer_1" xmlns="http://www.w3.org/2000/svg" xmlns:xlink="http://www.w3.org/1999/xlink" x="0px" y="0px"
	 viewBox="0 0 1549.6 1549.6" style="enable-background:new 0 0 1549.6 1549.6;" xml:space="preserve">
<style type="text/css">
	.st0{fill:#373535;}
</style>
<g>
	<path class="st0" d="M783.6,328.2c48,0,94.8,9.4,138.9,28c45.8,19.3,86.4,47.4,120.7,83.7c26.2,27.7,47.6,59.2,63.7,93.6
		c14.8,31.5,24.8,65,29.8,99.6l0.3,2l2,0.4c22.8,4.7,45.3,11.6,66.9,20.7c45.8,19.3,86.4,47.4,120.7,83.7
		c33.2,35.2,58.5,75.9,75.2,121.1c16.1,43.5,23.4,89.1,21.9,135.7c-1.5,46.4-11.8,91.5-30.6,133.9c-19.4,43.9-47.1,83-82.3,116.2
		c-22.9,21.6-72.2,63.6-145,101.4l-0.4,0.2l-0.4,0.2c-63.8,32.5-151.4,47-284.2,47c-65.9,0-135.7-3.5-197.2-6.7
		c-6.1-0.3-17.5-0.5-33.8-0.5c-99.3,0-359.4,5.7-413.9,6.9c15-17.6,43.6-69.3,69.7-126.7c16.9-37.3,56-128.7,52.8-172.7
		c5.8-49.2,6.8-106.1,7.8-166.3c1-58.9,2.1-119.9,8.1-177c8.1-76.5,23.8-134.4,49.7-182.2l0.9-1.6l0.9-1.6
		c39.8-69.2,86.3-117.9,110.5-140.7c34-32.1,73.2-57,116.6-73.9C694.5,336.4,738.6,328.2,783.6,328.2 M783.6,325.3L783.6,325.3
		C783.6,325.3,783.6,325.3,783.6,325.3L783.6,325.3z M783.6,325.3c-45.3,0-89.7,8.3-131.9,24.8c-43.7,17-83.2,42.1-117.5,74.5
		c-24.3,22.9-71,71.8-111,141.4l-0.9,1.6l-0.9,1.6c-26,48.1-41.9,106.4-50,183.2c-6,57.2-7.1,118.2-8.1,177.2
		c-1,60.2-2,117.1-7.8,166.3c5.3,70.6-103.2,286.1-126.7,302.5c36-0.8,316.5-7,420.9-7c15.7,0,27.4,0.1,33.7,0.5
		c61.6,3.1,131.4,6.7,197.4,6.7c133.3,0,221.3-14.6,285.5-47.3l0.4-0.2l0.4-0.2c73.1-38,122.6-80.1,145.6-101.8
		c35.4-33.5,63.3-72.9,82.9-117.2c18.9-42.8,29.3-88.2,30.8-135c1.5-46.9-5.9-92.9-22.1-136.8c-16.8-45.5-42.3-86.6-75.8-122.1
		c-34.5-36.6-75.5-65-121.7-84.4c-21.9-9.2-44.4-16.2-67.5-20.9c-5.1-34.8-15.2-68.6-30.1-100.4c-16.2-34.7-37.8-66.4-64.2-94.4
		c-34.6-36.6-75.5-65-121.7-84.4C879.1,334.8,832,325.3,783.6,325.3L783.6,325.3z M228.7,1398.4c-2.5,0.1-3.8,0.1-3.8,0.1
		c0.3,0.6,0.8,0.9,1.4,0.9C227,1399.4,227.8,1399.1,228.7,1398.4L228.7,1398.4z"/>
</g>
</svg>
